/* XPM */
static char * flag_xpm[] = {
"15 15 180 2",
"  	c None",
". 	c #D3C7B3",
"+ 	c #E1D9CA",
"@ 	c #DFD7CA",
"# 	c #E0D8CA",
"$ 	c #E0D7CA",
"% 	c #E0D7C9",
"& 	c #DED5C7",
"* 	c #DCD2C4",
"= 	c #DAD0C3",
"- 	c #DCD3C5",
"; 	c #E1D8CB",
"> 	c #E2DACC",
", 	c #DAD1BF",
"' 	c #DFD6C8",
") 	c #D5CDC2",
"! 	c #69605A",
"~ 	c #B1A398",
"{ 	c #D1C5B9",
"] 	c #C6BAAE",
"^ 	c #816660",
"/ 	c #6A1212",
"( 	c #780405",
"_ 	c #661515",
": 	c #543935",
"< 	c #B1A99E",
"[ 	c #D3CCBF",
"} 	c #DCD5C8",
"| 	c #DFD6C9",
"1 	c #DDD4C4",
"2 	c #CFC5B7",
"3 	c #4D0901",
"4 	c #8D0F06",
"5 	c #600C0A",
"6 	c #6A1011",
"7 	c #B41819",
"8 	c #F71C1C",
"9 	c #F41C1C",
"0 	c #E42424",
"a 	c #8B1717",
"b 	c #3A2C2B",
"c 	c #41403E",
"d 	c #D0C8BB",
"e 	c #DBD3C3",
"f 	c #DBD2C2",
"g 	c #CDC1B1",
"h 	c #651208",
"i 	c #D52213",
"j 	c #C22A24",
"k 	c #C42B2A",
"l 	c #D82323",
"m 	c #ED1B1B",
"n 	c #DD2323",
"o 	c #861717",
"p 	c #6A5955",
"q 	c #464543",
"r 	c #CDC3B5",
"s 	c #D8CFBF",
"t 	c #D9CFBF",
"u 	c #C9BCAC",
"v 	c #641108",
"w 	c #D02113",
"x 	c #BB2822",
"y 	c #BE2929",
"z 	c #D52223",
"A 	c #841516",
"B 	c #816F67",
"C 	c #393936",
"D 	c #C7BEAE",
"E 	c #D5CBBA",
"F 	c #D7CDBB",
"G 	c #C5B7A6",
"H 	c #631108",
"I 	c #62524D",
"J 	c #292A2A",
"K 	c #BAB0A0",
"L 	c #D1C7B6",
"M 	c #D4CBB8",
"N 	c #C0B19F",
"O 	c #64534F",
"P 	c #40403E",
"Q 	c #9B9285",
"R 	c #CDC2B0",
"S 	c #D2C8B5",
"T 	c #BDAD9A",
"U 	c #BD2929",
"V 	c #D62323",
"W 	c #F31C1C",
"X 	c #F51C1C",
"Y 	c #E32424",
"Z 	c #851516",
"` 	c #887469",
" .	c #726D65",
"..	c #827A6E",
"+.	c #CABEAC",
"@.	c #D0C5B2",
"#.	c #BBAA97",
"$.	c #640D04",
"%.	c #D82113",
"&.	c #C62B2B",
"*.	c #CF1F1F",
"=.	c #B50C0D",
"-.	c #A80D0D",
";.	c #AD1718",
">.	c #730E0F",
",.	c #5F4F4A",
"'.	c #5A5753",
").	c #726B61",
"!.	c #C8BBA9",
"~.	c #CEC3AE",
"{.	c #B8AA97",
"].	c #502B24",
"^.	c #7A140C",
"/.	c #770F0C",
"(.	c #761314",
"_.	c #782F2B",
":.	c #9A6D61",
"<.	c #6E4B45",
"[.	c #603A35",
"}.	c #62413A",
"|.	c #6B6158",
"1.	c #58534D",
"2.	c #676159",
"3.	c #C6B9A5",
"4.	c #CCC0AC",
"5.	c #BCAD99",
"6.	c #A19584",
"7.	c #A08978",
"8.	c #9E8273",
"9.	c #9C8375",
"0.	c #A59584",
"a.	c #B1A794",
"b.	c #6C6A62",
"c.	c #61615D",
"d.	c #6A6760",
"e.	c #6C685F",
"f.	c #5E5954",
"g.	c #3A3936",
"h.	c #C0B39F",
"i.	c #CABEA9",
"j.	c #BBAC98",
"k.	c #BDAF9B",
"l.	c #BDB09C",
"m.	c #BCAF9B",
"n.	c #C0B29D",
"o.	c #A79A88",
"p.	c #7B7771",
"q.	c #747475",
"r.	c #757574",
"s.	c #737372",
"t.	c #747373",
"u.	c #474745",
"v.	c #C7BBA6",
"w.	c #B8AA95",
"x.	c #B9AB96",
"y.	c #BAAC97",
"z.	c #B3A590",
"A.	c #767169",
"B.	c #69696A",
"C.	c #777575",
"D.	c #767575",
"E.	c #787877",
"F.	c #424241",
"G.	c #BDB09B",
"H.	c #C8BBA4",
"I.	c #BAAB96",
"J.	c #B5A691",
"K.	c #B9A994",
"L.	c #918676",
"M.	c #70675C",
"N.	c #6F675B",
"O.	c #70675B",
"P.	c #6E665A",
"Q.	c #807669",
"R.	c #C2B59F",
"S.	c #CCC0A9",
"T.	c #D3C8B6",
"U.	c #D2C7B5",
"V.	c #D1C7B5",
"W.	c #CCC1AB",
". + @ # $ % & * = - & $ ; > , ",
"' ) ! ~ { ] ^ / ( _ : < [ } | ",
"1 2 3 4 5 6 7 8 9 0 a b c d e ",
"f g h i j k l m m n o p q r s ",
"t u v w x y z m m n A B C D E ",
"F G H w x y z m m n o I J K L ",
"M N v w x y z m m n o O P Q R ",
"S T H w x U V W X Y Z `  ...+.",
"@.#.$.%.j &.*.=.-.;.>.,.'.).!.",
"~.{.].^./.(._.:.<.[.}.|.1.2.3.",
"4.5.6.7.8.9.0.a.b.c.d.e.f.g.h.",
"i.j.k.l.m.m.n.o.p.q.r.s.t.u.m.",
"v.w.x.x.x.x.y.z.A.B.C.D.E.F.G.",
"H.I.J.J.J.J.J.K.L.M.N.O.P.Q.R.",
"S.@.T.T.T.T.T.T.U.U.U.U.U.V.W."};
